<?xml version="1.0" encoding="utf-8"?>
<!-- Generator: Adobe Illustrator 19.0.0, SVG Export Plug-In . SVG Version: 6.00 Build 0)  -->
<svg version="1.1" id="Layer_1" xmlns="http://www.w3.org/2000/svg" xmlns:xlink="http://www.w3.org/1999/xlink" x="0px" y="0px"
	 width="26px" height="24px" viewBox="0 0 26 24" enable-background="new 0 0 26 24" xml:space="preserve">
<path id="XMLID_13_" fill="#BEC6C3" d="M25,7.8h-2.4l0.1-0.1l-7.3-7.3l-1.3,1.3l6.1,6.1H6l6.1-6.1l-1.3-1.3L3.4,7.8H1v5.9h1l3.2,9.9
	h15.7l3.2-9.9h1V7.8z M23.2,9.6v2.2H2.8V9.6H23.2z M12,13.7v8.1H9.9l-1.3-8.1H12z M14,13.7h3.2l-1.3,8.1H14V13.7z M3.9,13.7h2.9
	l1.3,8.1H6.5L3.9,13.7z M19.5,21.8h-1.8l1.3-8.1h3.1L19.5,21.8z"/>
</svg>
