<?xml version="1.0" encoding="UTF-8" standalone="no"?>
<svg width="135px" height="29px" viewBox="0 0 135 29" version="1.1" xmlns="http://www.w3.org/2000/svg" xmlns:xlink="http://www.w3.org/1999/xlink" xmlns:sketch="http://www.bohemiancoding.com/sketch/ns">
    <!-- Generator: Sketch 3.3.2 (12043) - http://www.bohemiancoding.com/sketch -->
    <title>logo</title>
    <desc>Created with Sketch.</desc>
    <defs></defs>
    <g id="Page-1" stroke="none" stroke-width="1" fill="none" fill-rule="evenodd" sketch:type="MSPage">
        <g id="mobile" sketch:type="MSArtboardGroup" transform="translate(-1635.000000, -110.000000)" fill="#353637">
            <g id="4" sketch:type="MSLayerGroup" transform="translate(1525.000000, 100.000000)">
                <g id="header" sketch:type="MSShapeGroup">
                    <g id="logo" transform="translate(110.000000, 9.500000)">
                        <path d="M59.95,3.94142857 L64.3914286,3.94142857 C68.0328571,3.94142857 69.56,5.19 69.56,9.52571429 L69.56,24.1657143 C69.56,26.5242857 68.0328571,28.64 65.1885714,28.64 L59.95,28.64 L59.95,3.94142857 L59.95,3.94142857 Z M63.6271429,25.6914286 L64.4942857,25.6914286 C65.4314286,25.6914286 65.8814286,25.4485714 65.8814286,23.8528571 L65.8814286,8.72857143 C65.8814286,7.13285714 65.4314286,6.89 64.4942857,6.89 L63.6271429,6.89 L63.6271429,25.6914286 L63.6271429,25.6914286 Z" id="Fill-1"></path>
                        <path d="M71.2242857,3.94142857 L74.9014286,3.94142857 L74.9014286,28.64 L71.2242857,28.64 L71.2242857,3.94142857 Z" id="Fill-2"></path>
                        <path d="M82.29,28.64 L80.9714286,16.7414286 C80.6942857,14.2085714 80.3471429,10.6014286 80.1042857,8.48571429 L79.9657143,8.48571429 C80,9.97714286 80.1042857,11.8157143 80.1042857,13.3071429 L80.1042857,28.64 L76.8785714,28.64 L76.8785714,3.94142857 L82.3242857,3.94142857 L83.5042857,14.14 C83.7114286,15.6657143 84.0585714,18.7185714 84.0942857,21.84 L84.2671429,21.84 C84.3714286,19.2742857 84.4057143,16.1514286 84.6142857,14.1742857 L85.62,3.94142857 L91.0671429,3.94142857 L91.0671429,28.64 L87.84,28.64 L87.84,17.2614286 C87.84,14.3471429 87.8757143,11.6071429 87.9785714,8.48571429 L87.84,8.48571429 C87.6314286,10.3242857 87.0771429,16.6714286 86.9371429,17.99 L85.6542857,28.64 L82.29,28.64" id="Fill-3"></path>
                        <path d="M92.9385714,28.64 L92.9385714,3.94 L96.7885714,3.94 C100.847143,3.94 102.651429,5.46714286 102.547143,8.76285714 L102.547143,14.1057143 C102.582857,18.1285714 100.535714,19.3771429 96.6157143,19.17 L96.6157143,28.64 L92.9385714,28.64 L92.9385714,28.64 Z M96.6157143,16.2214286 C97.6914286,16.2214286 98.7657143,16.2557143 98.87,15.1114286 L98.87,9.24857143 C98.87,6.95857143 98.0728571,6.78571429 96.6157143,6.89 L96.6157143,16.2214286 L96.6157143,16.2214286 Z" id="Fill-4"></path>
                        <path d="M103.9,28.64 L103.9,3.94142857 L107.577143,3.94142857 L107.577143,25.4142857 L112.26,25.4142857 L112.26,28.64 L103.9,28.64" id="Fill-5"></path>
                        <path d="M113.195714,28.64 L113.195714,3.94142857 L121.382857,3.94142857 L121.382857,7.16714286 L116.872857,7.16714286 L116.872857,13.5157143 L121.21,13.5157143 L121.21,16.7414286 L116.872857,16.7414286 L116.872857,25.4142857 L121.452857,25.4142857 L121.452857,28.64 L113.195714,28.64" id="Fill-6"></path>
                        <path d="M124.887143,0.75 L128.321429,0.75 L123.534286,6.68142857 L121.66,6.68142857 L124.887143,0.75" id="Fill-7"></path>
                        <path d="M128.771429,24.6514286 C128.771429,25.9 129.152857,26.1771429 129.915714,26.1771429 C130.644286,26.1771429 131.025714,25.9 131.025714,24.6514286 L131.025714,22.0485714 C131.025714,18.58 125.094286,15.18 125.094286,11.1571429 L125.094286,7.61857143 C125.094286,4.39142857 127.627143,3.45571429 129.881429,3.45571429 C132.171429,3.45571429 134.702857,4.39142857 134.702857,7.61857143 L134.702857,12.8214286 L131.025714,12.8214286 L131.025714,7.93 C131.025714,6.68142857 130.644286,6.40428571 129.915714,6.40428571 C129.152857,6.40428571 128.771429,6.68142857 128.771429,7.93 L128.771429,10.9828571 C128.771429,12.7528571 134.702857,18.0942857 134.702857,20.5928571 L134.702857,24.9628571 C134.702857,28.1885714 132.171429,29.1257143 129.881429,29.1257143 C127.627143,29.1257143 125.094286,28.1885714 125.094286,24.9628571 L125.094286,19.2742857 L128.771429,19.2742857 L128.771429,24.6514286" id="Fill-8"></path>
                        <path d="M0.36,3.83857143 L4.80857143,3.83857143 C8.45857143,3.83857143 9.98714286,5.09 9.98714286,9.43571429 L9.98714286,24.1042857 C9.98714286,26.4671429 8.45857143,28.5871429 5.60714286,28.5871429 L0.36,28.5871429 L0.36,3.83857143 L0.36,3.83857143 Z M4.04428571,25.6328571 L4.91285714,25.6328571 C5.85,25.6328571 6.30285714,25.39 6.30285714,23.7914286 L6.30285714,8.63571429 C6.30285714,7.03714286 5.85,6.79428571 4.91285714,6.79428571 L4.04428571,6.79428571 L4.04428571,25.6328571 L4.04428571,25.6328571 Z" id="Fill-9"></path>
                        <path d="M11.5857143,7.52428571 C11.5857143,4.29142857 14.1228571,3.35285714 16.3828571,3.35285714 C18.6771429,3.35285714 21.2142857,4.29142857 21.2142857,7.52428571 L21.2142857,24.9028571 C21.2142857,28.1357143 18.6771429,29.0742857 16.3828571,29.0742857 C14.1228571,29.0742857 11.5857143,28.1357143 11.5857143,24.9028571 L11.5857143,7.52428571 L11.5857143,7.52428571 Z M15.27,24.59 C15.27,25.8414286 15.6528571,26.12 16.4171429,26.12 C17.1471429,26.12 17.53,25.8414286 17.53,24.59 L17.53,7.83571429 C17.53,6.58571429 17.1471429,6.30714286 16.4171429,6.30714286 C15.6528571,6.30714286 15.27,6.58571429 15.27,7.83571429 L15.27,24.59 L15.27,24.59 Z" id="Fill-10"></path>
                        <path d="M22.9171429,28.5871429 L22.9171429,3.83857143 L26.6014286,3.83857143 L26.6014286,25.3542857 L31.2942857,25.3542857 L31.2942857,28.5871429 L22.9171429,28.5871429" id="Fill-11"></path>
                        <path d="M32.8728571,28.5871429 L32.8728571,3.83857143 L36.5571429,3.83857143 L36.5571429,25.3542857 L41.25,25.3542857 L41.25,28.5871429 L32.8728571,28.5871429" id="Fill-12"></path>
                        <path d="M42.9528571,3.83857143 L44.1685714,9.22714286 C44.69,11.6257143 44.6557143,11.9728571 44.9685714,14.58 L45.0385714,14.58 C45.1428571,12.6328571 45.2828571,11 45.6642857,9.4 L46.9842857,3.83857143 L50.4257143,3.83857143 L46.6371429,19.1685714 L46.6371429,28.5871429 L42.9528571,28.5871429 L42.9528571,19.3414286 L39.1642857,3.83857143 L42.9528571,3.83857143" id="Fill-13"></path>
                    </g>
                </g>
            </g>
        </g>
    </g>
</svg>