<?xml version="1.0" encoding="UTF-8" standalone="no"?>
<svg width="183px" height="75px" viewBox="0 0 183 75" version="1.1" xmlns="http://www.w3.org/2000/svg" xmlns:xlink="http://www.w3.org/1999/xlink" xmlns:sketch="http://www.bohemiancoding.com/sketch/ns">
    <!-- Generator: Sketch 3.3.2 (12043) - http://www.bohemiancoding.com/sketch -->
    <title>logo</title>
    <desc>Created with Sketch.</desc>
    <defs></defs>
    <g id="Page-1" stroke="none" stroke-width="1" fill="none" fill-rule="evenodd" sketch:type="MSPage">
        <g id="1.1" sketch:type="MSArtboardGroup" transform="translate(-218.000000, -40.000000)">
            <g id="header" sketch:type="MSLayerGroup">
                <g id="logo" transform="translate(217.000000, 40.000000)" sketch:type="MSShapeGroup">
                    <path d="M75.364266,38.0625 L81.7700399,38.0625 C87.0250384,38.0625 89.2280713,39.8541667 89.2280713,46.0708333 L89.2280713,67.0645833 C89.2280713,70.4479167 87.0250384,73.4833333 82.9229115,73.4833333 L75.364266,73.4833333 L75.364266,38.0625 L75.364266,38.0625 Z M80.6695716,69.2541667 L81.9209613,69.2541667 C83.2729653,69.2541667 83.9206695,68.90625 83.9206695,66.6166667 L83.9206695,44.9270833 C83.9206695,42.6395833 83.2729653,42.2916667 81.9209613,42.2916667 L80.6695716,42.2916667 L80.6695716,69.2541667 L80.6695716,69.2541667 Z" id="Fill-1" fill="#353637"></path>
                    <path d="M91.6302365,38.0625 L96.9355421,38.0625 L96.9355421,73.4833333 L91.6302365,73.4833333 L91.6302365,38.0625 Z" id="Fill-2" fill="#353637"></path>
                    <path d="M107.59646,73.4833333 L105.693174,56.41875 C105.294909,52.7875 104.793934,47.6145833 104.443881,44.5791667 L104.242652,44.5791667 C104.292959,46.71875 104.443881,49.3541667 104.443881,51.49375 L104.443881,73.4833333 L99.7883753,73.4833333 L99.7883753,38.0625 L107.646768,38.0625 L109.348825,52.6875 C109.648572,54.8770833 110.149547,59.2541667 110.199854,63.73125 L110.449294,63.73125 C110.600215,60.05 110.648426,55.5729167 110.950269,52.7375 L112.402887,38.0625 L120.261279,38.0625 L120.261279,73.4833333 L115.603678,73.4833333 L115.603678,57.1645833 C115.603678,52.9854167 115.656081,49.05625 115.804906,44.5791667 L115.603678,44.5791667 C115.303931,47.2166667 114.503209,56.3208333 114.301981,58.2104167 L112.451098,73.4833333 L107.59646,73.4833333" id="Fill-3" fill="#353637"></path>
                    <path d="M122.961095,73.4833333 L122.961095,38.0625 L128.517936,38.0625 C134.372428,38.0625 136.975822,40.25 136.826996,44.9770833 L136.826996,52.6395833 C136.877303,58.4083333 133.923856,60.2 128.268497,59.9020833 L128.268497,73.4833333 L122.961095,73.4833333 L122.961095,73.4833333 Z M128.268497,55.6729167 C129.819633,55.6729167 131.370769,55.7229167 131.519595,54.08125 L131.519595,45.6729167 C131.519595,42.3895833 130.368819,42.1416667 128.268497,42.2895833 L128.268497,55.6729167 L128.268497,55.6729167 Z" id="Fill-4" fill="#353637"></path>
                    <path d="M138.778494,73.4833333 L138.778494,38.0625 L144.083799,38.0625 L144.083799,68.85625 L150.839627,68.85625 L150.839627,73.4833333 L138.778494,73.4833333" id="Fill-5" fill="#353637"></path>
                    <path d="M152.191631,73.4833333 L152.191631,38.0625 L164.005421,38.0625 L164.005421,42.6895833 L157.496936,42.6895833 L157.496936,51.7916667 L163.753885,51.7916667 L163.753885,56.41875 L157.496936,56.41875 L157.496936,68.85625 L164.103939,68.85625 L164.103939,73.4833333 L152.191631,73.4833333" id="Fill-6" fill="#353637"></path>
                    <path d="M169.059191,33.4854167 L174.014443,33.4854167 L167.107693,41.9916667 L164.403686,41.9916667 L169.059191,33.4854167" id="Fill-7" fill="#353637"></path>
                    <path d="M174.664243,67.7625 C174.664243,69.5520833 175.215525,69.95 176.315994,69.95 C177.368251,69.95 177.917437,69.5520833 177.917437,67.7625 L177.917437,64.03125 C177.917437,59.05625 169.358937,54.18125 169.358937,48.4104167 L169.358937,43.3354167 C169.358937,38.7083333 173.012492,37.3645833 176.265686,37.3645833 C179.569188,37.3645833 183.222743,38.7083333 183.222743,43.3354167 L183.222743,50.7979167 L177.917437,50.7979167 L177.917437,43.7833333 C177.917437,41.9916667 177.368251,41.59375 176.315994,41.59375 C175.215525,41.59375 174.664243,41.9916667 174.664243,43.7833333 L174.664243,48.1604167 C174.664243,50.6979167 183.222743,58.3604167 183.222743,61.9416667 L183.222743,68.2104167 C183.222743,72.8354167 179.569188,74.1791667 176.265686,74.1791667 C173.012492,74.1791667 169.358937,72.8354167 169.358937,68.2104167 L169.358937,60.05 L174.664243,60.05 L174.664243,67.7625" id="Fill-8" fill="#353637"></path>
                    <path d="M52.9796913,68.7916667 C50.237953,66.79375 47.7687116,64.4333333 45.649524,61.775 C45.5405252,61.6229167 45.4336225,61.46875 45.328816,61.3145833 C43.4758369,58.6 42.0986794,55.8270833 41.0988252,53.4145833 C39.4240172,49.3770833 38.8140433,46.3604167 38.8140433,46.3604167 L38.2438959,46.3604167 L38.2438959,72.2020833 C38.2438959,73.2854167 39.1284628,74.1645833 40.2184506,74.1645833 L63.5609567,74.1645833 L63.5609567,73.5979167 C63.5609567,73.5979167 60.3433968,73.8979167 52.9796913,68.7916667 L52.9796913,68.7916667 Z M53.038383,68.8333333 L54.1619088,69.6166667 C53.7825092,69.3625 53.4073019,69.1 53.038383,68.8333333 L53.038383,68.8333333 Z" id="Fill-9" fill="#FAE64B"></path>
                    <path d="M96.6714297,6.82083333 C99.413168,8.81875 101.880313,11.1791667 104.001597,13.8375 C104.110596,13.9895833 104.215402,14.14375 104.322305,14.2979167 C106.175284,17.0125 107.552442,19.7854167 108.552296,22.1979167 C110.225008,26.2354167 110.837078,29.2520833 110.837078,29.2520833 L111.407225,29.2520833 L111.407225,3.41041667 C111.407225,2.32708333 110.522658,1.44791667 109.430574,1.44791667 L86.0880682,1.44791667 L86.0880682,2.01458333 C86.0880682,2.01458333 89.3077242,1.71458333 96.6714297,6.82083333 L96.6714297,6.82083333 Z M96.612738,6.77916667 L95.4892122,5.99583333 C95.8686118,6.25 96.2438191,6.51041667 96.612738,6.77916667 L96.612738,6.77916667 Z" id="Fill-10" fill="#FAE64B"></path>
                    <path d="M1.11723741,1.26875 L7.64668305,1.26875 C13.0001996,1.26875 15.2451551,3.09375 15.2451551,9.42916667 L15.2451551,30.8229167 C15.2451551,34.26875 13.0001996,37.3604167 8.81841984,37.3604167 L1.11723741,37.3604167 L1.11723741,1.26875 L1.11723741,1.26875 Z M6.52315725,33.0520833 L7.79970055,33.0520833 C9.17476198,33.0520833 9.83923526,32.6958333 9.83923526,30.3645833 L9.83923526,8.26458333 C9.83923526,5.93125 9.17476198,5.57708333 7.79970055,5.57708333 L6.52315725,5.57708333 L6.52315725,33.0520833 L6.52315725,33.0520833 Z" id="Fill-11" fill="#353637"></path>
                    <path d="M17.5907248,6.64166667 C17.5907248,1.92708333 21.3134521,0.558333333 24.627434,0.558333333 C27.9938191,0.558333333 31.7165464,1.92708333 31.7165464,6.64166667 L31.7165464,31.9875 C31.7165464,36.7020833 27.9938191,38.0708333 24.627434,38.0708333 C21.3134521,38.0708333 17.5907248,36.7020833 17.5907248,31.9875 L17.5907248,6.64166667 L17.5907248,6.64166667 Z M22.9966447,31.53125 C22.9966447,33.35625 23.5563114,33.7625 24.6777411,33.7625 C25.7509598,33.7625 26.3106265,33.35625 26.3106265,31.53125 L26.3106265,7.09791667 C26.3106265,5.27291667 25.7509598,4.86666667 24.6777411,4.86666667 C23.5563114,4.86666667 22.9966447,5.27291667 22.9966447,7.09791667 L22.9966447,31.53125 L22.9966447,31.53125 Z" id="Fill-12" fill="#353637"></path>
                    <path d="M34.2151336,37.3604167 L34.2151336,1.26875 L39.6210534,1.26875 L39.6210534,32.6458333 L46.5068412,32.6458333 L46.5068412,37.3604167 L34.2151336,37.3604167" id="Fill-13" fill="#353637"></path>
                    <path d="M48.8251612,37.3604167 L48.8251612,1.26875 L54.2310811,1.26875 L54.2310811,32.6458333 L61.1147727,32.6458333 L61.1147727,37.3604167 L48.8251612,37.3604167" id="Fill-14" fill="#353637"></path>
                    <path d="M63.61336,1.26875 L65.3992629,9.125 C66.1643504,12.6229167 66.1119472,13.1291667 66.5730958,16.9333333 L66.6737101,16.9333333 C66.8267276,14.09375 67.0321483,11.7125 67.5918151,9.37916667 L69.5307356,1.26875 L74.5803133,1.26875 L69.0192798,23.6229167 L69.0192798,37.3604167 L63.61336,37.3604167 L63.61336,23.8770833 L58.0565187,1.26875 L63.61336,1.26875" id="Fill-15" fill="#353637"></path>
                </g>
            </g>
        </g>
    </g>
</svg>